<mxfile host="app.diagrams.net" modified="2023-01-05T14:07:52.424Z" agent="5.0 (Windows NT 10.0; Win64; x64) AppleWebKit/537.36 (KHTML, like Gecko) Chrome/108.0.0.0 Safari/537.36" version="20.6.0" etag="m635Ey-3huNLihZUOPDu" type="github">
  <diagram id="1kiGouXq5BZEusoQ5Sgm" name="Page-1">
    <mxGraphModel dx="2249" dy="828" grid="1" gridSize="10" guides="1" tooltips="1" connect="1" arrows="1" fold="1" page="1" pageScale="1" pageWidth="827" pageHeight="1169" math="0" shadow="0">
      <root>
        <mxCell id="0" />
        <mxCell id="1" parent="0" />
        <mxCell id="QRtvIbFj0A-vFtdJvOy1-9" style="edgeStyle=orthogonalEdgeStyle;rounded=0;orthogonalLoop=1;jettySize=auto;html=1;" edge="1" parent="1" source="QRtvIbFj0A-vFtdJvOy1-8" target="QRtvIbFj0A-vFtdJvOy1-10">
          <mxGeometry relative="1" as="geometry">
            <mxPoint x="30" y="570" as="targetPoint" />
            <Array as="points">
              <mxPoint x="30" y="570" />
              <mxPoint x="30" y="510" />
            </Array>
          </mxGeometry>
        </mxCell>
        <mxCell id="QRtvIbFj0A-vFtdJvOy1-16" style="edgeStyle=orthogonalEdgeStyle;rounded=0;orthogonalLoop=1;jettySize=auto;html=1;entryX=0;entryY=0.5;entryDx=0;entryDy=0;" edge="1" parent="1" source="QRtvIbFj0A-vFtdJvOy1-8" target="QRtvIbFj0A-vFtdJvOy1-15">
          <mxGeometry relative="1" as="geometry">
            <Array as="points">
              <mxPoint x="30" y="570" />
              <mxPoint x="30" y="630" />
            </Array>
          </mxGeometry>
        </mxCell>
        <mxCell id="QRtvIbFj0A-vFtdJvOy1-8" value="Input data" style="rounded=1;whiteSpace=wrap;html=1;" vertex="1" parent="1">
          <mxGeometry x="-180" y="540" width="120" height="60" as="geometry" />
        </mxCell>
        <mxCell id="QRtvIbFj0A-vFtdJvOy1-10" value="No analysis required" style="rounded=1;whiteSpace=wrap;html=1;" vertex="1" parent="1">
          <mxGeometry x="110" y="480" width="120" height="60" as="geometry" />
        </mxCell>
        <mxCell id="QRtvIbFj0A-vFtdJvOy1-11" value="Assessment?" style="text;html=1;strokeColor=none;fillColor=none;align=center;verticalAlign=middle;whiteSpace=wrap;rounded=0;" vertex="1" parent="1">
          <mxGeometry x="-40" y="540" width="60" height="30" as="geometry" />
        </mxCell>
        <mxCell id="QRtvIbFj0A-vFtdJvOy1-23" style="edgeStyle=orthogonalEdgeStyle;rounded=0;orthogonalLoop=1;jettySize=auto;html=1;entryX=0.017;entryY=0.4;entryDx=0;entryDy=0;entryPerimeter=0;" edge="1" parent="1" source="QRtvIbFj0A-vFtdJvOy1-15" target="QRtvIbFj0A-vFtdJvOy1-22">
          <mxGeometry relative="1" as="geometry" />
        </mxCell>
        <mxCell id="QRtvIbFj0A-vFtdJvOy1-24" style="edgeStyle=orthogonalEdgeStyle;rounded=0;orthogonalLoop=1;jettySize=auto;html=1;entryX=0;entryY=0.5;entryDx=0;entryDy=0;" edge="1" parent="1" source="QRtvIbFj0A-vFtdJvOy1-15" target="QRtvIbFj0A-vFtdJvOy1-21">
          <mxGeometry relative="1" as="geometry" />
        </mxCell>
        <mxCell id="QRtvIbFj0A-vFtdJvOy1-15" value="Perform assessment analysis" style="rounded=1;whiteSpace=wrap;html=1;" vertex="1" parent="1">
          <mxGeometry x="110" y="600" width="120" height="60" as="geometry" />
        </mxCell>
        <mxCell id="QRtvIbFj0A-vFtdJvOy1-17" value="No" style="text;html=1;strokeColor=none;fillColor=none;align=center;verticalAlign=middle;whiteSpace=wrap;rounded=0;" vertex="1" parent="1">
          <mxGeometry x="20" y="470" width="60" height="30" as="geometry" />
        </mxCell>
        <mxCell id="QRtvIbFj0A-vFtdJvOy1-18" value="Yes" style="text;html=1;strokeColor=none;fillColor=none;align=center;verticalAlign=middle;whiteSpace=wrap;rounded=0;" vertex="1" parent="1">
          <mxGeometry x="40" y="630" width="60" height="30" as="geometry" />
        </mxCell>
        <mxCell id="QRtvIbFj0A-vFtdJvOy1-28" style="edgeStyle=orthogonalEdgeStyle;rounded=0;orthogonalLoop=1;jettySize=auto;html=1;entryX=0;entryY=0.5;entryDx=0;entryDy=0;" edge="1" parent="1" source="QRtvIbFj0A-vFtdJvOy1-21" target="QRtvIbFj0A-vFtdJvOy1-22">
          <mxGeometry relative="1" as="geometry" />
        </mxCell>
        <mxCell id="QRtvIbFj0A-vFtdJvOy1-21" value="Split data using splits in lookup table" style="rounded=1;whiteSpace=wrap;html=1;" vertex="1" parent="1">
          <mxGeometry x="460" y="660" width="120" height="60" as="geometry" />
        </mxCell>
        <mxCell id="QRtvIbFj0A-vFtdJvOy1-31" style="edgeStyle=orthogonalEdgeStyle;rounded=0;orthogonalLoop=1;jettySize=auto;html=1;entryX=0;entryY=0.5;entryDx=0;entryDy=0;" edge="1" parent="1" source="QRtvIbFj0A-vFtdJvOy1-22" target="QRtvIbFj0A-vFtdJvOy1-30">
          <mxGeometry relative="1" as="geometry" />
        </mxCell>
        <mxCell id="QRtvIbFj0A-vFtdJvOy1-35" style="edgeStyle=orthogonalEdgeStyle;rounded=0;orthogonalLoop=1;jettySize=auto;html=1;entryX=0;entryY=0.5;entryDx=0;entryDy=0;" edge="1" parent="1" source="QRtvIbFj0A-vFtdJvOy1-22" target="QRtvIbFj0A-vFtdJvOy1-34">
          <mxGeometry relative="1" as="geometry">
            <Array as="points">
              <mxPoint x="830" y="640" />
              <mxPoint x="830" y="700" />
            </Array>
          </mxGeometry>
        </mxCell>
        <mxCell id="QRtvIbFj0A-vFtdJvOy1-22" value="Indicator data ready" style="rounded=1;whiteSpace=wrap;html=1;" vertex="1" parent="1">
          <mxGeometry x="640" y="610" width="120" height="60" as="geometry" />
        </mxCell>
        <mxCell id="QRtvIbFj0A-vFtdJvOy1-25" value="Split of indicator data required?" style="text;html=1;strokeColor=none;fillColor=none;align=center;verticalAlign=middle;whiteSpace=wrap;rounded=0;" vertex="1" parent="1">
          <mxGeometry x="260" y="600" width="60" height="30" as="geometry" />
        </mxCell>
        <mxCell id="QRtvIbFj0A-vFtdJvOy1-26" value="No" style="text;html=1;strokeColor=none;fillColor=none;align=center;verticalAlign=middle;whiteSpace=wrap;rounded=0;" vertex="1" parent="1">
          <mxGeometry x="384" y="600" width="60" height="30" as="geometry" />
        </mxCell>
        <mxCell id="QRtvIbFj0A-vFtdJvOy1-27" value="Yes" style="text;html=1;strokeColor=none;fillColor=none;align=center;verticalAlign=middle;whiteSpace=wrap;rounded=0;" vertex="1" parent="1">
          <mxGeometry x="370" y="700" width="60" height="30" as="geometry" />
        </mxCell>
        <mxCell id="QRtvIbFj0A-vFtdJvOy1-39" style="edgeStyle=orthogonalEdgeStyle;rounded=0;orthogonalLoop=1;jettySize=auto;html=1;entryX=0;entryY=0.5;entryDx=0;entryDy=0;" edge="1" parent="1" source="QRtvIbFj0A-vFtdJvOy1-30" target="QRtvIbFj0A-vFtdJvOy1-38">
          <mxGeometry relative="1" as="geometry">
            <Array as="points">
              <mxPoint x="1240" y="640" />
              <mxPoint x="1240" y="715" />
            </Array>
          </mxGeometry>
        </mxCell>
        <mxCell id="QRtvIbFj0A-vFtdJvOy1-50" style="edgeStyle=orthogonalEdgeStyle;rounded=0;orthogonalLoop=1;jettySize=auto;html=1;entryX=0;entryY=0.5;entryDx=0;entryDy=0;" edge="1" parent="1" source="QRtvIbFj0A-vFtdJvOy1-30" target="QRtvIbFj0A-vFtdJvOy1-49">
          <mxGeometry relative="1" as="geometry">
            <Array as="points">
              <mxPoint x="1240" y="640" />
              <mxPoint x="1240" y="555" />
            </Array>
          </mxGeometry>
        </mxCell>
        <mxCell id="QRtvIbFj0A-vFtdJvOy1-30" value="Data ready for assessment analysis" style="rounded=1;whiteSpace=wrap;html=1;" vertex="1" parent="1">
          <mxGeometry x="1030" y="610" width="120" height="60" as="geometry" />
        </mxCell>
        <mxCell id="QRtvIbFj0A-vFtdJvOy1-32" value="Yes" style="text;html=1;strokeColor=none;fillColor=none;align=center;verticalAlign=middle;whiteSpace=wrap;rounded=0;" vertex="1" parent="1">
          <mxGeometry x="790" y="650" width="60" height="30" as="geometry" />
        </mxCell>
        <mxCell id="QRtvIbFj0A-vFtdJvOy1-33" value="No" style="text;html=1;strokeColor=none;fillColor=none;align=center;verticalAlign=middle;whiteSpace=wrap;rounded=0;" vertex="1" parent="1">
          <mxGeometry x="840" y="610" width="60" height="30" as="geometry" />
        </mxCell>
        <mxCell id="QRtvIbFj0A-vFtdJvOy1-36" style="edgeStyle=orthogonalEdgeStyle;rounded=0;orthogonalLoop=1;jettySize=auto;html=1;entryX=0;entryY=0.75;entryDx=0;entryDy=0;" edge="1" parent="1" source="QRtvIbFj0A-vFtdJvOy1-34" target="QRtvIbFj0A-vFtdJvOy1-30">
          <mxGeometry relative="1" as="geometry" />
        </mxCell>
        <mxCell id="QRtvIbFj0A-vFtdJvOy1-34" value="Perform loess regression" style="rounded=1;whiteSpace=wrap;html=1;" vertex="1" parent="1">
          <mxGeometry x="850" y="670" width="120" height="60" as="geometry" />
        </mxCell>
        <mxCell id="QRtvIbFj0A-vFtdJvOy1-37" value="&lt;span style=&quot;color: rgb(0, 0, 0); font-family: Helvetica; font-size: 12px; font-style: normal; font-variant-ligatures: normal; font-variant-caps: normal; font-weight: 400; letter-spacing: normal; orphans: 2; text-align: center; text-indent: 0px; text-transform: none; widows: 2; word-spacing: 0px; -webkit-text-stroke-width: 0px; background-color: rgb(248, 249, 250); text-decoration-thickness: initial; text-decoration-style: initial; text-decoration-color: initial; float: none; display: inline !important;&quot;&gt;Loess regression required&lt;/span&gt;" style="text;whiteSpace=wrap;html=1;" vertex="1" parent="1">
          <mxGeometry x="770" y="585" width="70" height="40" as="geometry" />
        </mxCell>
        <mxCell id="QRtvIbFj0A-vFtdJvOy1-53" style="edgeStyle=orthogonalEdgeStyle;rounded=0;orthogonalLoop=1;jettySize=auto;html=1;entryX=0.5;entryY=1;entryDx=0;entryDy=0;" edge="1" parent="1" source="QRtvIbFj0A-vFtdJvOy1-38" target="QRtvIbFj0A-vFtdJvOy1-52">
          <mxGeometry relative="1" as="geometry" />
        </mxCell>
        <mxCell id="QRtvIbFj0A-vFtdJvOy1-38" value="Feed custom time series using lookup table" style="rounded=1;whiteSpace=wrap;html=1;" vertex="1" parent="1">
          <mxGeometry x="1280" y="690" width="120" height="60" as="geometry" />
        </mxCell>
        <mxCell id="QRtvIbFj0A-vFtdJvOy1-42" value="Custom time series required?" style="text;html=1;strokeColor=none;fillColor=none;align=center;verticalAlign=middle;whiteSpace=wrap;rounded=0;" vertex="1" parent="1">
          <mxGeometry x="1150" y="600" width="80" height="30" as="geometry" />
        </mxCell>
        <mxCell id="QRtvIbFj0A-vFtdJvOy1-44" value="Yes" style="text;html=1;strokeColor=none;fillColor=none;align=center;verticalAlign=middle;whiteSpace=wrap;rounded=0;" vertex="1" parent="1">
          <mxGeometry x="1230" y="720" width="60" height="30" as="geometry" />
        </mxCell>
        <mxCell id="QRtvIbFj0A-vFtdJvOy1-46" value="No" style="text;html=1;strokeColor=none;fillColor=none;align=center;verticalAlign=middle;whiteSpace=wrap;rounded=0;" vertex="1" parent="1">
          <mxGeometry x="1241" y="585" width="60" height="30" as="geometry" />
        </mxCell>
        <mxCell id="QRtvIbFj0A-vFtdJvOy1-51" style="edgeStyle=orthogonalEdgeStyle;rounded=0;orthogonalLoop=1;jettySize=auto;html=1;" edge="1" parent="1" source="QRtvIbFj0A-vFtdJvOy1-49" target="QRtvIbFj0A-vFtdJvOy1-52">
          <mxGeometry relative="1" as="geometry">
            <mxPoint x="1460" y="640" as="targetPoint" />
          </mxGeometry>
        </mxCell>
        <mxCell id="QRtvIbFj0A-vFtdJvOy1-49" value="Perform standard analysis" style="rounded=1;whiteSpace=wrap;html=1;" vertex="1" parent="1">
          <mxGeometry x="1280" y="525" width="120" height="60" as="geometry" />
        </mxCell>
        <mxCell id="QRtvIbFj0A-vFtdJvOy1-52" value="Output data" style="rounded=1;whiteSpace=wrap;html=1;" vertex="1" parent="1">
          <mxGeometry x="1460" y="610" width="120" height="60" as="geometry" />
        </mxCell>
        <mxCell id="QRtvIbFj0A-vFtdJvOy1-54" value="&lt;h1&gt;Information needed:&lt;/h1&gt;&lt;div&gt;- Is indicator assessed?&lt;br&gt;- Is indicator split for analysis?&lt;/div&gt;&lt;div&gt;&lt;span style=&quot;white-space: pre;&quot;&gt;	&lt;/span&gt;- indicator name after splitting&lt;br&gt;&lt;/div&gt;&lt;div&gt;- Indicator analysis type&lt;/div&gt;&lt;div&gt;- Years to analyse over&lt;/div&gt;&lt;div&gt;-&amp;nbsp;&lt;/div&gt;" style="text;html=1;strokeColor=none;fillColor=none;spacing=5;spacingTop=-20;whiteSpace=wrap;overflow=hidden;rounded=0;" vertex="1" parent="1">
          <mxGeometry x="890" y="310" width="300" height="120" as="geometry" />
        </mxCell>
      </root>
    </mxGraphModel>
  </diagram>
</mxfile>
